<svg width="18" height="18" viewBox="0 0 18 18" fill="none" xmlns="http://www.w3.org/2000/svg">
<path d="M9 9C11.8406 9 14.1429 6.98555 14.1429 4.5C14.1429 2.01445 11.8406 0 9 0C6.15938 0 3.85714 2.01445 3.85714 4.5C3.85714 6.98555 6.15938 9 9 9ZM12.6 10.125H11.929C11.0371 10.4836 10.0446 10.6875 9 10.6875C7.95536 10.6875 6.96696 10.4836 6.07098 10.125H5.4C2.41875 10.125 0 12.2414 0 14.85V16.3125C0 17.2441 0.863839 18 1.92857 18H16.0714C17.1362 18 18 17.2441 18 16.3125V14.85C18 12.2414 15.5813 10.125 12.6 10.125Z" fill="white"/>
</svg>
